<svg xmlns="http://www.w3.org/2000/svg" width="200" height="88" viewBox="0 0 200 88" fill="none">
    <path d="M35.2495 76.4371C32.7804 76.4371 30.6532 76.4371 28.26 76.4371C28.26 79.2228 28.298 81.9323 28.26 84.6417C28.26 86.2064 27.4623 87.313 25.9808 87.8091C24.5753 88.2671 23.2458 87.9236 22.448 86.6643C21.9922 85.9774 21.8023 85.0234 21.7643 84.1838C21.6883 81.627 21.6503 79.1084 21.7643 76.5515C21.8023 75.2159 21.3844 74.5672 20.0929 74.0329C-2.12936 64.7979 -7.06764 35.5663 10.976 19.6912C13.5971 17.4015 16.826 15.6843 19.9409 14.0433C21.3464 13.3183 21.8782 12.5932 21.8023 11.0667C21.6883 8.58626 21.7263 6.10577 21.7643 3.62529C21.8023 1.41193 23.0938 -3.78233e-05 25.0311 -3.78233e-05C26.9684 -3.78233e-05 28.26 1.45009 28.26 3.66345C28.298 6.25842 28.26 8.85339 28.26 11.5247C30.6152 11.5247 32.7424 11.5247 35.2116 11.5247C35.2116 9.15868 35.1736 6.83084 35.2116 4.503C35.2116 3.70161 35.2116 2.8239 35.4775 2.06067C36.0473 0.496059 37.3388 -0.190844 38.9722 0.0381235C40.6057 0.305253 41.6313 1.33561 41.6693 3.01471C41.7833 5.686 41.7833 8.35729 41.7073 11.0286C41.6693 12.3642 42.0492 13.013 43.3787 13.4709C47.6712 14.8829 51.3559 17.1726 54.5848 20.2255C56.5221 22.0572 56.826 24.0034 55.3445 25.5299C53.977 26.9418 52.0397 26.7892 50.1783 25.0719C35.1736 11.5247 11.8877 18.5464 7.29134 38.0086C4.67025 48.9991 9.49457 60.4475 19.1432 66.248C28.7538 72.0104 41.1375 70.9037 49.5705 63.4622C49.9884 63.0806 50.4062 62.6608 50.8241 62.3174C52.3436 61.0962 54.2049 61.1344 55.4205 62.47C56.6361 63.8057 56.6361 65.6756 55.2685 67.0875C51.9637 70.4457 48.0891 72.9262 43.6446 74.4145C42.1251 74.9106 41.7073 75.6357 41.7833 77.124C41.8972 79.4136 41.8212 81.7033 41.8212 83.993C41.7833 86.5117 40.5297 87.9999 38.4784 87.9618C36.5031 87.9236 35.2875 86.4735 35.2875 84.0312C35.2116 81.5888 35.2495 79.1084 35.2495 76.4371Z" fill="#333333"/>
    <path d="M60.9688 37.5121C62.9441 37.2068 64.5775 36.8634 66.2869 36.6726C68.5661 36.4436 70.6933 37.7411 71.681 39.8399C72.7066 41.9388 72.3647 44.343 70.8453 46.0602C69.2878 47.8157 66.8187 48.4262 64.6155 47.5867C64.0837 47.3959 63.5898 47.1288 62.8681 46.7853C62.8681 51.0594 62.8681 55.1426 62.8681 59.3022C61.8045 59.5694 60.9688 59.9128 60.9688 58.3864C60.9688 51.3647 60.9688 44.3048 60.9688 37.5121ZM66.6667 38.5043C64.5775 38.4661 62.9061 40.1071 62.8301 42.1678C62.7541 44.3048 64.4635 46.0984 66.5908 46.1366C68.6041 46.1366 70.3894 44.4575 70.4274 42.4349C70.5034 40.2979 68.794 38.5425 66.6667 38.5043Z" fill="#333333"/>
    <path d="M107.881 46.5568C107.463 46.0989 106.741 45.641 106.703 45.183C106.589 42.5117 106.665 39.8786 106.665 37.4744C108.755 37.1692 110.616 36.5967 112.439 36.7875C114.073 36.9402 115.63 37.9705 117.454 38.6956C119.201 36.8257 121.632 35.8717 124.443 37.36C128.09 39.3062 127.52 42.7789 127.406 46.1371C126.191 46.595 125.545 46.4424 125.621 44.9922C125.659 44.1145 125.659 43.1986 125.621 42.3209C125.507 40.1076 123.987 38.5811 121.898 38.543C119.733 38.5048 118.137 40.0694 118.023 42.3973C117.947 43.6566 118.023 44.9159 118.023 46.1371C116.58 46.6713 116.086 46.2516 116.162 44.9159C116.2 44.0382 116.2 43.1223 116.162 42.2446C116.048 40.1457 114.529 38.6193 112.553 38.543C110.464 38.4666 108.755 39.9549 108.603 42.092C108.489 43.4276 108.603 44.7633 108.603 46.0607C108.299 46.2134 108.071 46.4042 107.881 46.5568Z" fill="#333333"/>
    <path d="M44.0625 37.2078C45.354 36.6735 46.0378 37.017 46.4936 38.2381C47.4433 40.6423 48.5069 43.0083 49.6845 45.7177C50.8621 42.9701 51.8498 40.566 52.8754 38.2C53.4072 36.9788 53.4072 36.9788 55.1926 37.0933C55.0786 37.5131 55.0027 37.9328 54.8507 38.2763C52.0777 44.8782 49.3047 51.4801 46.5316 58.1202C46.0758 59.2268 45.544 59.8756 44.0625 59.265C45.354 56.1739 46.5696 53.0829 47.9371 50.0681C48.5829 48.6562 48.5449 47.5113 47.8992 46.1375C46.5316 43.1991 45.3161 40.2225 44.0625 37.2078Z" fill="#333333"/>
    <path d="M144.539 37.4362C144.539 40.1457 144.539 43.0841 144.539 45.9081C143.475 46.4042 142.563 46.8239 141.614 47.32C139.524 48.3885 136.941 48.0833 135.232 46.5568C133.484 45.0303 132.877 42.4735 133.712 40.2983C134.548 38.085 136.637 36.5585 138.955 36.673C140.816 36.7875 142.601 37.1691 144.539 37.4362ZM142.791 42.3591C142.829 40.2983 141.196 38.5811 139.145 38.5048C137.017 38.4284 135.232 40.1075 135.194 42.2446C135.156 44.229 136.865 46.0225 138.879 46.0989C140.93 46.2134 142.753 44.4579 142.791 42.3591Z" fill="#333333"/>
    <path d="M89.0024 42.283C89.0404 39.1156 91.5475 36.6351 94.7004 36.6733C97.8153 36.7114 100.322 39.3064 100.246 42.4356C100.17 45.5267 97.7393 47.9309 94.6244 47.969C91.4715 47.969 88.9644 45.4504 89.0024 42.283ZM94.5484 46.1373C96.5617 46.1754 98.3471 44.4963 98.4611 42.4738C98.575 40.3749 96.8276 38.5432 94.7004 38.505C92.6111 38.4669 90.9397 40.0315 90.8257 42.1303C90.7498 44.3055 92.4212 46.0991 94.5484 46.1373Z" fill="#333333"/>
    <path d="M163.113 46.1369C161.784 46.5566 161.214 46.2514 161.29 44.992C161.328 44.038 161.328 43.084 161.29 42.1299C161.138 40.0311 159.619 38.5428 157.605 38.5046C155.554 38.4664 153.883 39.9547 153.731 42.0918C153.655 43.3893 153.731 44.7249 153.731 46.0605C153.579 46.2132 153.427 46.3658 153.275 46.4803C152.819 46.0987 151.945 45.7171 151.945 45.2973C151.831 42.5879 151.869 39.8784 151.869 37.3979C153.921 37.1308 155.782 36.711 157.643 36.6347C160.454 36.5584 162.848 38.8099 163.113 41.672C163.227 43.1603 163.113 44.6104 163.113 46.1369Z" fill="#333333"/>
    <path d="M188.68 37.4742C190.693 37.1689 192.364 36.8254 194.036 36.6728C197.075 36.4438 199.696 38.7716 199.962 41.8627C200.076 43.2365 199.962 44.6485 199.962 46.0986C198.632 46.6329 198.024 46.2894 198.138 44.8774C198.176 43.9997 198.176 43.0839 198.138 42.2062C197.986 40.1073 196.505 38.619 194.53 38.5427C192.44 38.4664 190.769 39.9165 190.579 42.0917C190.465 43.4273 190.579 44.7248 190.579 46.2131C189.591 46.3657 188.718 46.7474 188.718 45.2209C188.68 42.5496 188.68 39.8783 188.68 37.4742Z" fill="#333333"/>
    <path d="M170.332 46.2135C170.332 43.0843 170.332 40.1077 170.332 37.4746C172.269 37.2074 174.055 36.7877 175.878 36.7113C178.727 36.5969 181.12 38.7721 181.424 41.6342C181.538 42.779 181.462 43.9238 181.5 45.0687C181.538 46.328 181.006 46.6333 179.715 46.1372C179.715 44.9924 179.753 43.7712 179.715 42.5882C179.601 40.1459 178.005 38.5431 175.802 38.5431C173.675 38.5813 172.193 40.1077 172.079 42.5119C172.041 43.3514 172.079 44.1528 172.041 44.9924C172.041 46.2517 172.003 46.2517 170.332 46.2135Z" fill="#333333"/>
    <path d="M79.6947 27.209C80.3784 27.209 80.8343 27.209 81.48 27.209C81.48 30.3764 81.48 33.5438 81.48 36.7493C82.1638 36.902 82.6956 37.0164 83.8352 37.2454C83.0755 38.085 82.5816 38.6574 82.0498 39.268C81.8979 39.1916 81.708 39.0772 81.556 39.0008C81.556 41.3668 81.556 43.7328 81.556 46.0988C80.1125 46.6331 79.6567 46.2133 79.6947 44.9158C79.7326 43.0078 79.6947 41.1379 79.6947 39.1916C78.9349 38.6574 77.1875 39.039 77.9852 37.1309C78.4411 37.0546 78.9729 36.9783 79.6567 36.8638C79.6946 33.5819 79.6947 30.4527 79.6947 27.209Z" fill="#333333"/>
    <path d="M34.4904 46.5571C34.0725 46.0992 33.3508 45.6794 33.3128 45.2214C33.1988 42.5883 33.2748 39.917 33.2748 37.1312C35.516 36.9786 37.7952 35.7193 39.6946 38.8485C38.7449 38.8485 38.0231 39.0393 37.4533 38.8103C36.1238 38.2379 35.2121 38.6577 35.1362 40.146C35.0602 42.0922 35.0982 44.0384 35.0982 45.9847C34.9082 46.2136 34.6803 46.3663 34.4904 46.5571Z" fill="#333333"/>
</svg>